<?xml version="1.0" encoding="UTF-8" standalone="no"?>
<svg width="84px" height="112px" viewBox="0 0 84 112" version="1.1" xmlns="http://www.w3.org/2000/svg" xmlns:xlink="http://www.w3.org/1999/xlink">
    <!-- Generator: Sketch 3.7.2 (28276) - http://www.bohemiancoding.com/sketch -->
    <title>polymerd</title>
    <desc>Created with Sketch.</desc>
    <defs></defs>
    <g id="Page-1" stroke="none" stroke-width="1" fill="none" fill-rule="evenodd">
        <polygon id="Shape" fill="#FF4081" points="28 84 28 28 28 0 0 0 0 112 28 112 56 112 56 84"></polygon>
        <polygon id="Shape" fill="#FFFFFF" opacity="0.2" transform="translate(14.000000, 14.000000) scale(-1, 1) translate(-14.000000, -14.000000) " points="28 0 28 28 0 28"></polygon>
        <polygon id="Shape" fill="#FFFFFF" opacity="0.1" points="0 56 0 28 28 28"></polygon>
        <polygon id="Shape-Copy" fill="#FFFFFF" opacity="0.25" transform="translate(14.000000, 14.000000) scale(-1, 1) translate(-14.000000, -14.000000) " points="0 28 0 0 28 0"></polygon>
        <polygon id="Shape" fill="#000000" opacity="0.1" points="28 84 28 56 0 56"></polygon>
        <polygon id="Shape" fill="#000000" opacity="0.2" points="28 84 0 84 0 56"></polygon>
        <polygon id="Shape-Copy-2" fill="#000000" opacity="0.25" transform="translate(14.000000, 98.000000) scale(1, -1) translate(-14.000000, -98.000000) " points="28 112 0 112 0 84"></polygon>
        <polygon id="Shape" fill="#000000" opacity="0.5" points="28 84 56 84 56 112"></polygon>
        <polygon id="Shape" fill="#000000" opacity="0.4" points="28 84 28 112 56 112"></polygon>
        <polygon id="Shape" fill="#000000" opacity="0.35" transform="translate(14.000000, 98.000000) scale(1, -1) translate(-14.000000, -98.000000) " points="28 112 28 84 0 84"></polygon>
        <polygon id="Shape" fill="#949ED5" points="56 0 28 0 28 28 56 28 56 84 56 112 84 84 84 28"></polygon>
        <polygon id="Shape" fill="#000000" opacity="0.4" transform="translate(42.000000, 14.000000) scale(1, -1) translate(-42.000000, -14.000000) " points="28 0 56 0 56 28"></polygon>
        <polygon id="Shape" fill="#000000" opacity="0.5" transform="translate(42.000000, 14.000000) scale(1, -1) translate(-42.000000, -14.000000) " points="28 0 28 28 56 28"></polygon>
        <polygon id="Shape" fill="#000000" opacity="0.2" transform="translate(70.000000, 42.000000) scale(-1, 1) translate(-70.000000, -42.000000) " points="84 56 84 28 56 28"></polygon>
        <polygon id="Shape" fill="#000000" opacity="0.1" transform="translate(70.000000, 42.000000) scale(-1, 1) translate(-70.000000, -42.000000) " points="84 56 56 56 56 28"></polygon>
        <polygon id="Shape" fill="#FFFFFF" opacity="0.1" transform="translate(70.000000, 70.000000) scale(-1, 1) translate(-70.000000, -70.000000) " points="56 84 84 84 84 56"></polygon>
        <polygon id="Shape" fill="#000000" opacity="0.3" points="56 0 56 28 84 28"></polygon>
        <polygon id="Shape" fill="#FFFFFF" opacity="0.2" points="56 112 56 84 84 84"></polygon>
    </g>
</svg>